<?xml version="1.0" encoding="utf-8"?>
<!-- Generator: Adobe Illustrator 24.2.1, SVG Export Plug-In . SVG Version: 6.00 Build 0)  -->
<svg version="1.1" id="Layer_2" xmlns="http://www.w3.org/2000/svg" xmlns:xlink="http://www.w3.org/1999/xlink" x="0px" y="0px"
	 viewBox="0 0 306 486" style="enable-background:new 0 0 306 486;" xml:space="preserve">
<style type="text/css">
	.st0{fill:#0B3AAF;}
	.st1{fill:#FFFFFF;}
	.st2{display:none;fill:#0B3AAF;}
	.st3{font-family:'BerlinSansFBDemi-Bold';}
	.st4{font-size:43px;}
</style>
<g id="POI">
	<path class="st0" d="M306.5,161.3C306.5,72.2,237.8,0,153,0C68.2,0-0.5,72.2-0.5,161.3c0,32.5,9.2,62.6,24.9,87.9H24L152.2,486
		L276,257.5C295.1,230.6,306.5,197.4,306.5,161.3z"/>
	<path class="st1" d="M153,51c57.9,0,105,49.5,105,110.3c0,60.8-47.1,110.3-105,110.3C95.1,271.6,48,222.2,48,161.3
		C48,100.5,95.1,51,153,51z"/>
</g>
<g id="car">
	<path class="st0" d="M193.3,196.1v-5.8h-14.7v5.8C178.7,206.3,193.3,206.5,193.3,196.1z"/>
	<path class="st0" d="M126.2,196.1v-5.8h-14.6v5.8C111.6,206.5,126.2,206.3,126.2,196.1z"/>
	<path class="st0" d="M201.1,178.3v-20.2c0-7.1-5.6-10.8-8.8-11.2l-8-20.6c-1.5-3.9-4.8-7.3-10.9-7.3h-11.2h-19.2h-11.5
		c-6.1,0-9.4,3.4-10.9,7.3l-8,20.6c-3.2,0.4-8.8,4.1-8.8,11.2v20.2c0,3.3,2.7,6,6,6h85.3C198.4,184.4,201.1,181.7,201.1,178.3z
		 M120.1,169.5C120.1,169.5,120.1,169.5,120.1,169.5C120.1,169.5,120.1,169.5,120.1,169.5c-3.8,0-6.8-3.1-6.8-6.9
		c0-3.8,3-6.9,6.7-6.9c0,0,0,0,0.1,0c0,0,0,0,0.1,0c3.7,0,6.7,3.1,6.7,6.9C126.8,166.4,123.8,169.5,120.1,169.5z M152.5,146.7
		L152.5,146.7h-25c-2.2,0-3.7-2.2-2.8-4.3l4.2-9.9c0.6-1.6,1.9-4,4.5-4h38.2c2.6,0,3.3,1.5,4.5,4l4.2,9.9c0.9,2-0.6,4.3-2.8,4.3
		H152.5L152.5,146.7z M184.3,170C184.3,170,184.3,170,184.3,170C184.3,170,184.3,170,184.3,170c-3.8,0-6.8-3.1-6.8-6.9
		c0-3.8,3-6.9,6.7-6.9c0,0,0,0,0.1,0c0,0,0,0,0.1,0c3.7,0,6.7,3.1,6.7,6.9C191,166.9,188,170,184.3,170z"/>
</g>
<g id="Layer_3">
	<g>
		<path class="st0" d="M75.2,181.8c-5.3-5.3-8.2-12.3-8.2-19.8c0-7.5,2.9-14.5,8.2-19.8c0.8-0.8,1.2-1.8,1.2-2.8c0-1-0.4-2-1.2-2.8
			c-1.6-1.6-4.1-1.6-5.7,0C62.7,143.3,59,152.4,59,162c0,0,0,0,0,0c0,9.6,3.7,18.6,10.5,25.4c1.6,1.6,4.1,1.6,5.7,0
			C76.7,185.8,76.7,183.3,75.2,181.8L75.2,181.8z"/>
		<path class="st0" d="M87.6,150.7c0-1-0.4-2-1.2-2.8c-1.6-1.6-4.1-1.6-5.7,0c-7.8,7.8-7.8,20.5,0,28.3c1.6,1.6,4.1,1.6,5.7,0
			c1.6-1.6,1.6-4.1,0-5.7c-4.7-4.7-4.7-12.3,0-17C87.3,152.7,87.6,151.7,87.6,150.7L87.6,150.7z"/>
		<circle class="st0" cx="94.9" cy="162" r="4"/>
	</g>
	<g>
		<path class="st0" d="M230.8,140.9c5.3,5.3,8.2,12.3,8.2,19.8c0,7.5-2.9,14.5-8.2,19.8c-0.8,0.8-1.2,1.8-1.2,2.8c0,1,0.4,2,1.2,2.8
			c1.6,1.6,4.1,1.6,5.7,0c6.8-6.8,10.5-15.8,10.5-25.4c0,0,0,0,0,0c0-9.6-3.7-18.6-10.5-25.4c-1.6-1.6-4.1-1.6-5.7,0
			C229.2,136.8,229.2,139.3,230.8,140.9L230.8,140.9z"/>
		<path class="st0" d="M218.3,172c0,1,0.4,2,1.2,2.8c1.6,1.6,4.1,1.6,5.7,0c7.8-7.8,7.8-20.5,0-28.3c-1.6-1.6-4.1-1.6-5.7,0
			c-1.6,1.6-1.6,4.1,0,5.7c4.7,4.7,4.7,12.3,0,17C218.7,169.9,218.3,170.9,218.3,172L218.3,172z"/>
		<circle class="st0" cx="211" cy="160.7" r="4"/>
	</g>
</g>
<text transform="matrix(1 0 0 1 48.5972 464.7148)" class="st2 st3 st4">AUTO CAR</text>
</svg>
