<?xml version="1.0" standalone="no"?>
<!DOCTYPE svg PUBLIC "-//W3C//DTD SVG 20010904//EN"
 "http://www.w3.org/TR/2001/REC-SVG-20010904/DTD/svg10.dtd">
<svg version="1.0" xmlns="http://www.w3.org/2000/svg"
 width="256.000000pt" height="256.000000pt" viewBox="0 0 256.000000 256.000000"
 preserveAspectRatio="xMidYMid meet">
<metadata>
Created by potrace 1.11, written by Peter Selinger 2001-2013
</metadata>
<g transform="translate(0.000000,256.000000) scale(0.100000,-0.100000)"
fill="#000000" stroke="none">
<path d="M1145 2485 c-288 -51 -533 -288 -611 -590 -26 -104 -28 -278 -4 -389
23 -103 93 -252 247 -526 17 -30 49 -89 71 -130 56 -106 212 -394 328 -607 82
-152 100 -179 110 -165 6 10 32 58 59 107 26 50 58 108 70 130 12 22 38 69 57
105 160 297 435 801 459 837 109 173 147 437 93 643 -73 280 -292 505 -559
575 -79 21 -233 26 -320 10z"/>
</g>
</svg>
